<svg width="17" height="17" viewBox="0 0 17 17" fill="none" xmlns="http://www.w3.org/2000/svg">
<path d="M0.999596 1.33325C0.999596 1.68687 1.14007 2.02601 1.39012 2.27606C1.64017 2.52611 1.97931 2.66658 2.33293 2.66658L12.4529 2.66658L1.38626 13.7199C1.13519 13.971 0.994141 14.3115 0.994141 14.6666C0.994141 15.0217 1.13519 15.3622 1.38626 15.6132C1.63733 15.8643 1.97786 16.0054 2.33293 16.0054C2.688 16.0054 3.02852 15.8643 3.2796 15.6132L14.3329 4.54658L14.3329 14.6666C14.3329 15.0202 14.4734 15.3593 14.7235 15.6094C14.9735 15.8594 15.3126 15.9999 15.6663 15.9999C16.0199 15.9999 16.359 15.8594 16.6091 15.6094C16.8591 15.3593 16.9996 15.0202 16.9996 14.6666L16.9996 1.33325C16.9975 1.15901 16.9613 0.986879 16.8929 0.826583C16.7576 0.500784 16.4987 0.241881 16.1729 0.106582C16.0126 0.0382602 15.8405 0.0020216 15.6663 -8.50417e-05L2.33293 -8.44589e-05C1.97931 -8.44434e-05 1.64017 0.14039 1.39012 0.390439C1.14007 0.640487 0.999596 0.979627 0.999596 1.33325Z" fill="black"/>
</svg>
